<?xml version="1.0" encoding="utf-8" standalone="no"?>
<!DOCTYPE svg PUBLIC "-//W3C//DTD SVG 1.1//EN"
  "http://www.w3.org/Graphics/SVG/1.1/DTD/svg11.dtd">
<svg xmlns:xlink="http://www.w3.org/1999/xlink" width="720pt" height="432pt" viewBox="0 0 720 432" xmlns="http://www.w3.org/2000/svg" version="1.1">
 <metadata>
  <rdf:RDF xmlns:dc="http://purl.org/dc/elements/1.1/" xmlns:cc="http://creativecommons.org/ns#" xmlns:rdf="http://www.w3.org/1999/02/22-rdf-syntax-ns#">
   <cc:Work>
    <dc:type rdf:resource="http://purl.org/dc/dcmitype/StillImage"/>
    <dc:date>2025-03-20T08:53:25.384939</dc:date>
    <dc:format>image/svg+xml</dc:format>
    <dc:creator>
     <cc:Agent>
      <dc:title>Matplotlib v3.7.5, https://matplotlib.org/</dc:title>
     </cc:Agent>
    </dc:creator>
   </cc:Work>
  </rdf:RDF>
 </metadata>
 <defs>
  <style type="text/css">*{stroke-linejoin: round; stroke-linecap: butt}</style>
 </defs>
 <g id="figure_1">
  <g id="patch_1">
   <path d="M 0 432 
L 720 432 
L 720 0 
L 0 0 
z
" style="fill: #ffffff"/>
  </g>
  <g id="axes_1">
   <g id="patch_2">
    <path d="M 54.02 378.52 
L 709.2 378.52 
L 709.2 10.8 
L 54.02 10.8 
z
" style="fill: #ffffff"/>
   </g>
   <g id="matplotlib.axis_1">
    <g id="xtick_1">
     <g id="line2d_1">
      <path d="M 83.800909 378.52 
L 83.800909 10.8 
" clip-path="url(#p8172fc2404)" style="fill: none; stroke: #b0b0b0; stroke-width: 0.8; stroke-linecap: square"/>
     </g>
     <g id="line2d_2">
      <defs>
       <path id="m552643c6a5" d="M 0 0 
L 0 3.5 
" style="stroke: #000000; stroke-width: 0.8"/>
      </defs>
      <g>
       <use xlink:href="#m552643c6a5" x="83.800909" y="378.52" style="stroke: #000000; stroke-width: 0.8"/>
      </g>
     </g>
     <g id="text_1">
      <!-- -5 -->
      <g transform="translate(77.48669 396.663125) scale(0.14 -0.14)">
       <defs>
        <path id="NotoSansCJKjp-Regular-2d" d="M 294 1568 
L 1933 1568 
L 1933 2016 
L 294 2016 
L 294 1568 
z
" transform="scale(0.015625)"/>
        <path id="NotoSansCJKjp-Regular-35" d="M 1677 -83 
C 2464 -83 3213 499 3213 1523 
C 3213 2560 2573 3021 1798 3021 
C 1517 3021 1306 2950 1094 2835 
L 1216 4192 
L 2982 4192 
L 2982 4691 
L 704 4691 
L 550 2502 
L 864 2304 
C 1133 2483 1331 2579 1645 2579 
C 2234 2579 2618 2182 2618 1510 
C 2618 826 2176 403 1619 403 
C 1075 403 730 653 467 922 
L 173 538 
C 493 224 941 -83 1677 -83 
z
" transform="scale(0.015625)"/>
       </defs>
       <use xlink:href="#NotoSansCJKjp-Regular-2d"/>
       <use xlink:href="#NotoSansCJKjp-Regular-35" x="34.699997"/>
      </g>
     </g>
    </g>
    <g id="xtick_2">
     <g id="line2d_3">
      <path d="M 202.924545 378.52 
L 202.924545 10.8 
" clip-path="url(#p8172fc2404)" style="fill: none; stroke: #b0b0b0; stroke-width: 0.8; stroke-linecap: square"/>
     </g>
     <g id="line2d_4">
      <g>
       <use xlink:href="#m552643c6a5" x="202.924545" y="378.52" style="stroke: #000000; stroke-width: 0.8"/>
      </g>
     </g>
     <g id="text_2">
      <!-- 0 -->
      <g transform="translate(199.039545 396.663125) scale(0.14 -0.14)">
       <defs>
        <path id="NotoSansCJKjp-Regular-30" d="M 1779 -83 
C 2669 -83 3238 723 3238 2362 
C 3238 3987 2669 4774 1779 4774 
C 883 4774 320 3987 320 2362 
C 320 723 883 -83 1779 -83 
z
M 1779 390 
C 1248 390 883 986 883 2362 
C 883 3731 1248 4314 1779 4314 
C 2310 4314 2675 3731 2675 2362 
C 2675 986 2310 390 1779 390 
z
" transform="scale(0.015625)"/>
       </defs>
       <use xlink:href="#NotoSansCJKjp-Regular-30"/>
      </g>
     </g>
    </g>
    <g id="xtick_3">
     <g id="line2d_5">
      <path d="M 322.048182 378.52 
L 322.048182 10.8 
" clip-path="url(#p8172fc2404)" style="fill: none; stroke: #b0b0b0; stroke-width: 0.8; stroke-linecap: square"/>
     </g>
     <g id="line2d_6">
      <g>
       <use xlink:href="#m552643c6a5" x="322.048182" y="378.52" style="stroke: #000000; stroke-width: 0.8"/>
      </g>
     </g>
     <g id="text_3">
      <!-- 5 -->
      <g transform="translate(318.163182 396.663125) scale(0.14 -0.14)">
       <use xlink:href="#NotoSansCJKjp-Regular-35"/>
      </g>
     </g>
    </g>
    <g id="xtick_4">
     <g id="line2d_7">
      <path d="M 441.171818 378.52 
L 441.171818 10.8 
" clip-path="url(#p8172fc2404)" style="fill: none; stroke: #b0b0b0; stroke-width: 0.8; stroke-linecap: square"/>
     </g>
     <g id="line2d_8">
      <g>
       <use xlink:href="#m552643c6a5" x="441.171818" y="378.52" style="stroke: #000000; stroke-width: 0.8"/>
      </g>
     </g>
     <g id="text_4">
      <!-- 10 -->
      <g transform="translate(433.401818 396.663125) scale(0.14 -0.14)">
       <defs>
        <path id="NotoSansCJKjp-Regular-31" d="M 563 0 
L 3136 0 
L 3136 486 
L 2195 486 
L 2195 4691 
L 1747 4691 
C 1491 4544 1190 4435 774 4358 
L 774 3987 
L 1613 3987 
L 1613 486 
L 563 486 
L 563 0 
z
" transform="scale(0.015625)"/>
       </defs>
       <use xlink:href="#NotoSansCJKjp-Regular-31"/>
       <use xlink:href="#NotoSansCJKjp-Regular-30" x="55.499985"/>
      </g>
     </g>
    </g>
    <g id="xtick_5">
     <g id="line2d_9">
      <path d="M 560.295455 378.52 
L 560.295455 10.8 
" clip-path="url(#p8172fc2404)" style="fill: none; stroke: #b0b0b0; stroke-width: 0.8; stroke-linecap: square"/>
     </g>
     <g id="line2d_10">
      <g>
       <use xlink:href="#m552643c6a5" x="560.295455" y="378.52" style="stroke: #000000; stroke-width: 0.8"/>
      </g>
     </g>
     <g id="text_5">
      <!-- 15 -->
      <g transform="translate(552.525455 396.663125) scale(0.14 -0.14)">
       <use xlink:href="#NotoSansCJKjp-Regular-31"/>
       <use xlink:href="#NotoSansCJKjp-Regular-35" x="55.499985"/>
      </g>
     </g>
    </g>
    <g id="xtick_6">
     <g id="line2d_11">
      <path d="M 679.419091 378.52 
L 679.419091 10.8 
" clip-path="url(#p8172fc2404)" style="fill: none; stroke: #b0b0b0; stroke-width: 0.8; stroke-linecap: square"/>
     </g>
     <g id="line2d_12">
      <g>
       <use xlink:href="#m552643c6a5" x="679.419091" y="378.52" style="stroke: #000000; stroke-width: 0.8"/>
      </g>
     </g>
     <g id="text_6">
      <!-- 20 -->
      <g transform="translate(671.649091 396.663125) scale(0.14 -0.14)">
       <defs>
        <path id="NotoSansCJKjp-Regular-32" d="M 282 0 
L 3232 0 
L 3232 506 
L 1933 506 
C 1696 506 1408 480 1165 461 
C 2266 1504 3008 2458 3008 3398 
C 3008 4230 2477 4774 1638 4774 
C 1043 4774 634 4506 256 4090 
L 595 3757 
C 858 4070 1184 4301 1568 4301 
C 2150 4301 2432 3910 2432 3373 
C 2432 2566 1754 1632 282 346 
L 282 0 
z
" transform="scale(0.015625)"/>
       </defs>
       <use xlink:href="#NotoSansCJKjp-Regular-32"/>
       <use xlink:href="#NotoSansCJKjp-Regular-30" x="55.499985"/>
      </g>
     </g>
    </g>
    <g id="text_7">
     <!-- 信噪比（dB） -->
     <g transform="translate(331.39375 416.605) scale(0.16 -0.16)">
      <defs>
       <path id="NotoSansCJKjp-Regular-4fe1" d="M 2592 5075 
L 2592 4678 
L 5549 4678 
L 5549 5075 
L 2592 5075 
z
M 2515 3296 
L 2515 2899 
L 5664 2899 
L 5664 3296 
L 2515 3296 
z
M 2515 2406 
L 2515 2010 
L 5651 2010 
L 5651 2406 
L 2515 2406 
z
M 1990 4186 
L 1990 3782 
L 6157 3782 
L 6157 4186 
L 1990 4186 
z
M 2451 1517 
L 2451 -512 
L 2912 -512 
L 2912 -211 
L 5242 -211 
L 5242 -493 
L 5722 -493 
L 5722 1517 
L 2451 1517 
z
M 2912 192 
L 2912 1126 
L 5242 1126 
L 5242 192 
L 2912 192 
z
M 1773 5357 
C 1395 4390 774 3437 128 2822 
C 211 2714 346 2458 397 2349 
C 640 2592 877 2880 1107 3194 
L 1107 -493 
L 1568 -493 
L 1568 3898 
C 1818 4320 2042 4768 2221 5216 
L 1773 5357 
z
" transform="scale(0.015625)"/>
       <path id="NotoSansCJKjp-Regular-566a" d="M 3373 4749 
L 4851 4749 
L 4851 4077 
L 3373 4077 
L 3373 4749 
z
M 2950 5114 
L 2950 3712 
L 5293 3712 
L 5293 5114 
L 2950 5114 
z
M 2688 3072 
L 3533 3072 
L 3533 2342 
L 2688 2342 
L 2688 3072 
z
M 4672 3072 
L 5542 3072 
L 5542 2342 
L 4672 2342 
L 4672 3072 
z
M 480 4794 
L 480 544 
L 877 544 
L 877 1043 
L 1952 1043 
L 1952 4794 
L 480 4794 
z
M 877 4333 
L 1555 4333 
L 1555 1510 
L 877 1510 
L 877 4333 
z
M 3878 1984 
L 3878 1498 
L 2189 1498 
L 2189 1094 
L 3578 1094 
C 3136 621 2438 211 1773 6 
C 1869 -83 2010 -256 2074 -371 
C 2726 -134 3411 307 3878 832 
L 3878 -518 
L 4333 -518 
L 4333 864 
C 4736 378 5331 -77 5875 -314 
C 5952 -198 6086 -32 6189 58 
C 5626 256 5011 659 4621 1094 
L 6086 1094 
L 6086 1498 
L 4333 1498 
L 4333 1984 
L 5946 1984 
L 5946 3424 
L 4288 3424 
L 4288 1984 
L 3923 1984 
L 3923 3424 
L 2310 3424 
L 2310 1984 
L 3878 1984 
z
" transform="scale(0.015625)"/>
       <path id="NotoSansCJKjp-Regular-6bd4" d="M 250 128 
L 397 -371 
C 1197 -179 2278 77 3290 326 
L 3245 787 
C 2694 659 2125 525 1600 410 
L 1600 2925 
L 3046 2925 
L 3046 3398 
L 1600 3398 
L 1600 5344 
L 1107 5344 
L 1107 301 
L 250 128 
z
M 3520 5344 
L 3520 512 
C 3520 -186 3693 -371 4320 -371 
C 4448 -371 5261 -371 5395 -371 
C 6003 -371 6138 -13 6202 1037 
C 6061 1069 5869 1152 5747 1248 
C 5709 320 5670 83 5370 83 
C 5190 83 4506 83 4371 83 
C 4064 83 4013 147 4013 499 
L 4013 2586 
C 4691 2874 5414 3219 5952 3571 
L 5594 3974 
C 5216 3674 4608 3328 4013 3046 
L 4013 5344 
L 3520 5344 
z
" transform="scale(0.015625)"/>
       <path id="NotoSansCJKjp-Regular-ff08" d="M 4448 2432 
C 4448 1184 4954 166 5722 -614 
L 6106 -416 
C 5370 346 4915 1293 4915 2432 
C 4915 3571 5370 4518 6106 5280 
L 5722 5478 
C 4954 4698 4448 3680 4448 2432 
z
" transform="scale(0.015625)"/>
       <path id="NotoSansCJKjp-Regular-64" d="M 1773 -83 
C 2189 -83 2560 141 2829 410 
L 2848 410 
L 2899 0 
L 3379 0 
L 3379 5094 
L 2790 5094 
L 2790 3757 
L 2822 3162 
C 2515 3411 2253 3565 1843 3565 
C 1050 3565 339 2861 339 1734 
C 339 576 902 -83 1773 -83 
z
M 1901 410 
C 1293 410 941 902 941 1741 
C 941 2534 1389 3072 1946 3072 
C 2234 3072 2502 2970 2790 2707 
L 2790 883 
C 2502 563 2221 410 1901 410 
z
" transform="scale(0.015625)"/>
       <path id="NotoSansCJKjp-Regular-42" d="M 646 0 
L 2138 0 
C 3187 0 3917 454 3917 1376 
C 3917 2016 3520 2387 2963 2496 
L 2963 2528 
C 3405 2669 3648 3078 3648 3546 
C 3648 4371 2982 4691 2035 4691 
L 646 4691 
L 646 0 
z
M 1235 2701 
L 1235 4224 
L 1958 4224 
C 2694 4224 3066 4019 3066 3469 
C 3066 2989 2739 2701 1933 2701 
L 1235 2701 
z
M 1235 474 
L 1235 2240 
L 2054 2240 
C 2880 2240 3334 1978 3334 1395 
C 3334 762 2861 474 2054 474 
L 1235 474 
z
" transform="scale(0.015625)"/>
       <path id="NotoSansCJKjp-Regular-ff09" d="M 1952 2432 
C 1952 3680 1446 4698 678 5478 
L 294 5280 
C 1030 4518 1485 3571 1485 2432 
C 1485 1293 1030 346 294 -416 
L 678 -614 
C 1446 166 1952 1184 1952 2432 
z
" transform="scale(0.015625)"/>
      </defs>
      <use xlink:href="#NotoSansCJKjp-Regular-4fe1"/>
      <use xlink:href="#NotoSansCJKjp-Regular-566a" x="99.999985"/>
      <use xlink:href="#NotoSansCJKjp-Regular-6bd4" x="199.999969"/>
      <use xlink:href="#NotoSansCJKjp-Regular-ff08" x="299.999954"/>
      <use xlink:href="#NotoSansCJKjp-Regular-64" x="399.999939"/>
      <use xlink:href="#NotoSansCJKjp-Regular-42" x="461.999924"/>
      <use xlink:href="#NotoSansCJKjp-Regular-ff09" x="527.699921"/>
     </g>
    </g>
   </g>
   <g id="matplotlib.axis_2">
    <g id="ytick_1">
     <g id="line2d_13">
      <path d="M 54.02 329.896877 
L 709.2 329.896877 
" clip-path="url(#p8172fc2404)" style="fill: none; stroke: #b0b0b0; stroke-width: 0.8; stroke-linecap: square"/>
     </g>
     <g id="line2d_14">
      <defs>
       <path id="m86cd424cb3" d="M 0 0 
L -3.5 0 
" style="stroke: #000000; stroke-width: 0.8"/>
      </defs>
      <g>
       <use xlink:href="#m86cd424cb3" x="54.02" y="329.896877" style="stroke: #000000; stroke-width: 0.8"/>
      </g>
     </g>
     <g id="text_8">
      <!-- 30 -->
      <g transform="translate(31.48 335.468439) scale(0.14 -0.14)">
       <defs>
        <path id="NotoSansCJKjp-Regular-33" d="M 1683 -83 
C 2522 -83 3194 416 3194 1254 
C 3194 1901 2752 2310 2202 2445 
L 2202 2477 
C 2701 2650 3034 3034 3034 3603 
C 3034 4346 2458 4774 1664 4774 
C 1126 4774 710 4538 358 4218 
L 672 3846 
C 941 4115 1267 4301 1645 4301 
C 2138 4301 2438 4006 2438 3558 
C 2438 3053 2112 2662 1139 2662 
L 1139 2214 
C 2227 2214 2598 1843 2598 1274 
C 2598 736 2208 403 1645 403 
C 1114 403 762 659 486 941 
L 186 563 
C 493 224 954 -83 1683 -83 
z
" transform="scale(0.015625)"/>
       </defs>
       <use xlink:href="#NotoSansCJKjp-Regular-33"/>
       <use xlink:href="#NotoSansCJKjp-Regular-30" x="55.499985"/>
      </g>
     </g>
    </g>
    <g id="ytick_2">
     <g id="line2d_15">
      <path d="M 54.02 274.403698 
L 709.2 274.403698 
" clip-path="url(#p8172fc2404)" style="fill: none; stroke: #b0b0b0; stroke-width: 0.8; stroke-linecap: square"/>
     </g>
     <g id="line2d_16">
      <g>
       <use xlink:href="#m86cd424cb3" x="54.02" y="274.403698" style="stroke: #000000; stroke-width: 0.8"/>
      </g>
     </g>
     <g id="text_9">
      <!-- 40 -->
      <g transform="translate(31.48 279.97526) scale(0.14 -0.14)">
       <defs>
        <path id="NotoSansCJKjp-Regular-34" d="M 2176 0 
L 2726 0 
L 2726 1293 
L 3354 1293 
L 3354 1760 
L 2726 1760 
L 2726 4691 
L 2080 4691 
L 128 1677 
L 128 1293 
L 2176 1293 
L 2176 0 
z
M 2176 1760 
L 736 1760 
L 1805 3360 
C 1939 3590 2067 3827 2182 4051 
L 2208 4051 
C 2195 3814 2176 3430 2176 3200 
L 2176 1760 
z
" transform="scale(0.015625)"/>
       </defs>
       <use xlink:href="#NotoSansCJKjp-Regular-34"/>
       <use xlink:href="#NotoSansCJKjp-Regular-30" x="55.499985"/>
      </g>
     </g>
    </g>
    <g id="ytick_3">
     <g id="line2d_17">
      <path d="M 54.02 218.910519 
L 709.2 218.910519 
" clip-path="url(#p8172fc2404)" style="fill: none; stroke: #b0b0b0; stroke-width: 0.8; stroke-linecap: square"/>
     </g>
     <g id="line2d_18">
      <g>
       <use xlink:href="#m86cd424cb3" x="54.02" y="218.910519" style="stroke: #000000; stroke-width: 0.8"/>
      </g>
     </g>
     <g id="text_10">
      <!-- 50 -->
      <g transform="translate(31.48 224.482082) scale(0.14 -0.14)">
       <use xlink:href="#NotoSansCJKjp-Regular-35"/>
       <use xlink:href="#NotoSansCJKjp-Regular-30" x="55.499985"/>
      </g>
     </g>
    </g>
    <g id="ytick_4">
     <g id="line2d_19">
      <path d="M 54.02 163.41734 
L 709.2 163.41734 
" clip-path="url(#p8172fc2404)" style="fill: none; stroke: #b0b0b0; stroke-width: 0.8; stroke-linecap: square"/>
     </g>
     <g id="line2d_20">
      <g>
       <use xlink:href="#m86cd424cb3" x="54.02" y="163.41734" style="stroke: #000000; stroke-width: 0.8"/>
      </g>
     </g>
     <g id="text_11">
      <!-- 60 -->
      <g transform="translate(31.48 168.988903) scale(0.14 -0.14)">
       <defs>
        <path id="NotoSansCJKjp-Regular-36" d="M 1926 -83 
C 2656 -83 3277 531 3277 1440 
C 3277 2426 2765 2912 1971 2912 
C 1606 2912 1197 2701 909 2349 
C 934 3802 1466 4294 2118 4294 
C 2400 4294 2682 4154 2861 3936 
L 3194 4294 
C 2931 4576 2579 4774 2093 4774 
C 1184 4774 358 4077 358 2240 
C 358 691 1030 -83 1926 -83 
z
M 922 1882 
C 1229 2317 1587 2477 1875 2477 
C 2445 2477 2720 2074 2720 1440 
C 2720 800 2374 378 1926 378 
C 1338 378 986 909 922 1882 
z
" transform="scale(0.015625)"/>
       </defs>
       <use xlink:href="#NotoSansCJKjp-Regular-36"/>
       <use xlink:href="#NotoSansCJKjp-Regular-30" x="55.499985"/>
      </g>
     </g>
    </g>
    <g id="ytick_5">
     <g id="line2d_21">
      <path d="M 54.02 107.924162 
L 709.2 107.924162 
" clip-path="url(#p8172fc2404)" style="fill: none; stroke: #b0b0b0; stroke-width: 0.8; stroke-linecap: square"/>
     </g>
     <g id="line2d_22">
      <g>
       <use xlink:href="#m86cd424cb3" x="54.02" y="107.924162" style="stroke: #000000; stroke-width: 0.8"/>
      </g>
     </g>
     <g id="text_12">
      <!-- 70 -->
      <g transform="translate(31.48 113.495724) scale(0.14 -0.14)">
       <defs>
        <path id="NotoSansCJKjp-Regular-37" d="M 1267 0 
L 1875 0 
C 1952 1837 2150 2931 3251 4339 
L 3251 4691 
L 314 4691 
L 314 4192 
L 2592 4192 
C 1670 2912 1350 1779 1267 0 
z
" transform="scale(0.015625)"/>
       </defs>
       <use xlink:href="#NotoSansCJKjp-Regular-37"/>
       <use xlink:href="#NotoSansCJKjp-Regular-30" x="55.499985"/>
      </g>
     </g>
    </g>
    <g id="ytick_6">
     <g id="line2d_23">
      <path d="M 54.02 52.430983 
L 709.2 52.430983 
" clip-path="url(#p8172fc2404)" style="fill: none; stroke: #b0b0b0; stroke-width: 0.8; stroke-linecap: square"/>
     </g>
     <g id="line2d_24">
      <g>
       <use xlink:href="#m86cd424cb3" x="54.02" y="52.430983" style="stroke: #000000; stroke-width: 0.8"/>
      </g>
     </g>
     <g id="text_13">
      <!-- 80 -->
      <g transform="translate(31.48 58.002545) scale(0.14 -0.14)">
       <defs>
        <path id="NotoSansCJKjp-Regular-38" d="M 1792 -83 
C 2669 -83 3258 448 3258 1126 
C 3258 1773 2880 2125 2470 2362 
L 2470 2394 
C 2746 2611 3091 3034 3091 3526 
C 3091 4250 2605 4762 1805 4762 
C 1075 4762 518 4282 518 3571 
C 518 3078 813 2726 1152 2490 
L 1152 2464 
C 723 2234 294 1792 294 1165 
C 294 442 922 -83 1792 -83 
z
M 2112 2547 
C 1555 2765 1050 3014 1050 3571 
C 1050 4026 1363 4326 1798 4326 
C 2298 4326 2592 3962 2592 3494 
C 2592 3149 2426 2829 2112 2547 
z
M 1798 352 
C 1235 352 813 717 813 1216 
C 813 1664 1082 2035 1459 2278 
C 2125 2010 2701 1779 2701 1146 
C 2701 678 2342 352 1798 352 
z
" transform="scale(0.015625)"/>
       </defs>
       <use xlink:href="#NotoSansCJKjp-Regular-38"/>
       <use xlink:href="#NotoSansCJKjp-Regular-30" x="55.499985"/>
      </g>
     </g>
    </g>
    <g id="text_14">
     <!-- 识别准确率（%） -->
     <g transform="translate(23.815 258.0275) rotate(-90) scale(0.16 -0.16)">
      <defs>
       <path id="NotoSansCJKjp-Regular-8bc6" d="M 3283 4461 
L 5222 4461 
L 5222 2547 
L 3283 2547 
L 3283 4461 
z
M 2810 4922 
L 2810 2086 
L 5715 2086 
L 5715 4922 
L 2810 4922 
z
M 4723 1312 
C 5062 755 5421 6 5562 -454 
L 6035 -262 
C 5894 192 5517 922 5158 1472 
L 4723 1312 
z
M 3264 1459 
C 3078 806 2739 179 2310 -230 
C 2426 -294 2643 -429 2733 -506 
C 3162 -58 3539 627 3757 1350 
L 3264 1459 
z
M 653 4922 
C 998 4621 1434 4205 1645 3936 
L 1978 4269 
C 1766 4531 1318 4934 966 5210 
L 653 4922 
z
M 320 3366 
L 320 2906 
L 1222 2906 
L 1222 685 
C 1222 346 986 96 864 -6 
C 947 -77 1101 -237 1158 -333 
C 1254 -205 1434 -64 2547 806 
C 2490 896 2400 1088 2362 1216 
L 1690 704 
L 1690 3366 
L 320 3366 
z
" transform="scale(0.015625)"/>
       <path id="NotoSansCJKjp-Regular-522b" d="M 4006 4608 
L 4006 1056 
L 4474 1056 
L 4474 4608 
L 4006 4608 
z
M 5363 5254 
L 5363 115 
C 5363 0 5325 -32 5203 -38 
C 5088 -45 4717 -45 4282 -32 
C 4358 -173 4429 -390 4454 -518 
C 5024 -518 5363 -506 5568 -422 
C 5760 -346 5843 -198 5843 122 
L 5843 5254 
L 5363 5254 
z
M 1037 4659 
L 2688 4659 
L 2688 3430 
L 1037 3430 
L 1037 4659 
z
M 595 5094 
L 595 2989 
L 3149 2989 
L 3149 5094 
L 595 5094 
z
M 1504 2829 
L 1472 2272 
L 358 2272 
L 358 1837 
L 1427 1837 
C 1312 947 1024 243 211 -179 
C 314 -256 454 -422 512 -538 
C 1427 -32 1747 800 1882 1837 
L 2771 1837 
C 2714 634 2650 173 2547 58 
C 2496 0 2438 -13 2342 -13 
C 2240 -13 1990 -13 1715 13 
C 1792 -115 1843 -301 1850 -448 
C 2131 -461 2413 -461 2560 -442 
C 2733 -429 2842 -384 2950 -250 
C 3117 -58 3181 518 3251 2061 
C 3251 2131 3258 2272 3258 2272 
L 1926 2272 
L 1958 2829 
L 1504 2829 
z
" transform="scale(0.015625)"/>
       <path id="NotoSansCJKjp-Regular-51c6" d="M 422 4646 
C 832 4378 1331 3962 1562 3686 
L 1888 4058 
C 1645 4339 1139 4717 730 4986 
L 422 4646 
z
M 230 307 
L 640 -19 
C 1011 518 1459 1235 1805 1843 
L 1453 2157 
C 1075 1504 576 749 230 307 
z
M 4122 2406 
L 4122 1555 
L 2989 1555 
L 2989 2406 
L 4122 2406 
z
M 3046 5376 
C 2733 4410 2208 3469 1606 2867 
C 1709 2790 1888 2592 1958 2502 
C 2157 2714 2349 2963 2528 3232 
L 2528 -512 
L 2989 -512 
L 2989 -205 
L 6144 -205 
L 6144 243 
L 4576 243 
L 4576 1120 
L 5837 1120 
L 5837 1555 
L 4576 1555 
L 4576 2406 
L 5837 2406 
L 5837 2842 
L 4576 2842 
L 4576 3674 
L 5997 3674 
L 5997 4109 
L 4659 4109 
C 4800 4442 4954 4851 5088 5210 
L 4595 5350 
C 4506 4986 4352 4480 4205 4109 
L 3034 4109 
C 3213 4474 3379 4858 3514 5248 
L 3046 5376 
z
M 4122 2842 
L 2989 2842 
L 2989 3674 
L 4122 3674 
L 4122 2842 
z
M 4122 1120 
L 4122 243 
L 2989 243 
L 2989 1120 
L 4122 1120 
z
" transform="scale(0.015625)"/>
       <path id="NotoSansCJKjp-Regular-786e" d="M 314 5024 
L 314 4582 
L 1107 4582 
C 947 3469 666 2426 173 1747 
C 269 1651 422 1427 474 1331 
C 595 1498 698 1683 800 1882 
L 800 -166 
L 1235 -166 
L 1235 378 
L 2490 378 
L 2490 3117 
L 1267 3117 
C 1395 3578 1498 4070 1574 4582 
L 2707 4582 
L 2707 5024 
L 314 5024 
z
M 1235 2688 
L 2054 2688 
L 2054 806 
L 1235 806 
L 1235 2688 
z
M 4218 1498 
L 3405 1498 
C 3418 1690 3424 1875 3424 2048 
L 3424 2246 
L 4218 2246 
L 4218 1498 
z
M 4640 1498 
L 4640 2246 
L 5472 2246 
L 5472 1498 
L 4640 1498 
z
M 3680 5382 
C 3430 4627 2989 3891 2490 3418 
C 2598 3341 2778 3181 2848 3098 
L 2976 3238 
L 2976 2048 
C 2976 1331 2906 422 2285 -224 
C 2381 -275 2560 -435 2624 -531 
C 3053 -90 3258 499 3354 1075 
L 5472 1075 
L 5472 45 
C 5472 -45 5446 -70 5357 -77 
C 5267 -83 4947 -83 4621 -70 
C 4685 -198 4755 -390 4768 -525 
C 5216 -525 5517 -518 5696 -442 
C 5875 -371 5933 -224 5933 38 
L 5933 3744 
L 4781 3744 
C 4973 4019 5171 4358 5312 4653 
L 4998 4864 
L 4928 4845 
L 3962 4845 
C 4019 4986 4077 5126 4128 5267 
L 3680 5382 
z
M 4218 2630 
L 3424 2630 
L 3424 3328 
L 4218 3328 
L 4218 2630 
z
M 4640 2630 
L 4640 3328 
L 5472 3328 
L 5472 2630 
L 4640 2630 
z
M 3424 3744 
L 3360 3744 
C 3507 3962 3642 4198 3770 4442 
L 4691 4442 
C 4582 4198 4429 3936 4294 3744 
L 3424 3744 
z
" transform="scale(0.015625)"/>
       <path id="NotoSansCJKjp-Regular-7387" d="M 5376 4038 
C 5139 3782 4704 3437 4384 3226 
L 4736 3014 
C 5056 3226 5472 3520 5798 3821 
L 5376 4038 
z
M 320 1997 
L 557 1613 
C 986 1798 1517 2048 2022 2291 
L 1933 2656 
C 1338 2406 730 2150 320 1997 
z
M 544 3680 
C 902 3482 1344 3174 1555 2957 
L 1888 3258 
C 1670 3469 1222 3757 864 3949 
L 544 3680 
z
M 4262 2458 
C 4768 2202 5408 1811 5715 1542 
L 6067 1850 
C 5734 2112 5094 2490 4595 2733 
L 4262 2458 
z
M 3526 2707 
C 3654 2566 3782 2400 3904 2227 
L 2810 2176 
C 3264 2618 3763 3168 4147 3642 
L 3770 3827 
C 3590 3571 3347 3270 3091 2976 
C 2957 3098 2784 3226 2598 3347 
C 2810 3578 3046 3878 3251 4154 
L 3110 4211 
L 5882 4211 
L 5882 4659 
L 3424 4659 
L 3424 5376 
L 2938 5376 
L 2938 4659 
L 538 4659 
L 538 4211 
L 2771 4211 
C 2643 4000 2470 3750 2310 3546 
L 2131 3654 
L 1894 3373 
C 2202 3174 2579 2906 2822 2682 
C 2650 2490 2470 2310 2304 2150 
L 1811 2131 
L 1882 1715 
L 4128 1882 
C 4211 1747 4275 1626 4320 1517 
L 4691 1709 
C 4550 2035 4192 2515 3872 2874 
L 3526 2707 
z
M 346 1222 
L 346 774 
L 2938 774 
L 2938 -531 
L 3424 -531 
L 3424 774 
L 6061 774 
L 6061 1222 
L 3424 1222 
L 3424 1722 
L 2938 1722 
L 2938 1222 
L 346 1222 
z
" transform="scale(0.015625)"/>
       <path id="NotoSansCJKjp-Regular-25" d="M 1312 1818 
C 1958 1818 2381 2362 2381 3309 
C 2381 4243 1958 4774 1312 4774 
C 672 4774 250 4243 250 3309 
C 250 2362 672 1818 1312 1818 
z
M 1312 2176 
C 941 2176 691 2560 691 3309 
C 691 4058 941 4416 1312 4416 
C 1683 4416 1933 4058 1933 3309 
C 1933 2560 1683 2176 1312 2176 
z
M 1446 -83 
L 1843 -83 
L 4435 4774 
L 4038 4774 
L 1446 -83 
z
M 4582 -83 
C 5222 -83 5645 454 5645 1402 
C 5645 2342 5222 2874 4582 2874 
C 3942 2874 3520 2342 3520 1402 
C 3520 454 3942 -83 4582 -83 
z
M 4582 275 
C 4211 275 3955 653 3955 1402 
C 3955 2150 4211 2515 4582 2515 
C 4947 2515 5210 2150 5210 1402 
C 5210 653 4947 275 4582 275 
z
" transform="scale(0.015625)"/>
      </defs>
      <use xlink:href="#NotoSansCJKjp-Regular-8bc6"/>
      <use xlink:href="#NotoSansCJKjp-Regular-522b" x="99.999985"/>
      <use xlink:href="#NotoSansCJKjp-Regular-51c6" x="199.999969"/>
      <use xlink:href="#NotoSansCJKjp-Regular-786e" x="299.999954"/>
      <use xlink:href="#NotoSansCJKjp-Regular-7387" x="399.999939"/>
      <use xlink:href="#NotoSansCJKjp-Regular-ff08" x="499.999924"/>
      <use xlink:href="#NotoSansCJKjp-Regular-25" x="599.999908"/>
      <use xlink:href="#NotoSansCJKjp-Regular-ff09" x="692.099899"/>
     </g>
    </g>
   </g>
   <g id="line2d_25">
    <path d="M 83.800909 216.746285 
L 202.924545 88.890001 
L 322.048182 57.369876 
L 441.171818 42.886156 
L 560.295455 33.00837 
L 679.419091 27.514545 
" clip-path="url(#p8172fc2404)" style="fill: none; stroke: #ff0000; stroke-width: 1.5; stroke-linecap: square"/>
    <defs>
     <path id="mb0a0fff689" d="M 0 3 
C 0.795609 3 1.55874 2.683901 2.12132 2.12132 
C 2.683901 1.55874 3 0.795609 3 0 
C 3 -0.795609 2.683901 -1.55874 2.12132 -2.12132 
C 1.55874 -2.683901 0.795609 -3 0 -3 
C -0.795609 -3 -1.55874 -2.683901 -2.12132 -2.12132 
C -2.683901 -1.55874 -3 -0.795609 -3 0 
C -3 0.795609 -2.683901 1.55874 -2.12132 2.12132 
C -1.55874 2.683901 -0.795609 3 0 3 
z
" style="stroke: #ff0000"/>
    </defs>
    <g clip-path="url(#p8172fc2404)">
     <use xlink:href="#mb0a0fff689" x="83.800909" y="216.746285" style="fill: #ff0000; stroke: #ff0000"/>
     <use xlink:href="#mb0a0fff689" x="202.924545" y="88.890001" style="fill: #ff0000; stroke: #ff0000"/>
     <use xlink:href="#mb0a0fff689" x="322.048182" y="57.369876" style="fill: #ff0000; stroke: #ff0000"/>
     <use xlink:href="#mb0a0fff689" x="441.171818" y="42.886156" style="fill: #ff0000; stroke: #ff0000"/>
     <use xlink:href="#mb0a0fff689" x="560.295455" y="33.00837" style="fill: #ff0000; stroke: #ff0000"/>
     <use xlink:href="#mb0a0fff689" x="679.419091" y="27.514545" style="fill: #ff0000; stroke: #ff0000"/>
    </g>
   </g>
   <g id="line2d_26">
    <path d="M 83.800909 256.645881 
L 202.924545 120.521113 
L 322.048182 79.234188 
L 441.171818 61.64285 
L 560.295455 48.823926 
L 679.419091 42.553197 
" clip-path="url(#p8172fc2404)" style="fill: none; stroke: #0000ff; stroke-width: 1.5; stroke-linecap: square"/>
    <defs>
     <path id="m59c945a898" d="M 0 3 
C 0.795609 3 1.55874 2.683901 2.12132 2.12132 
C 2.683901 1.55874 3 0.795609 3 0 
C 3 -0.795609 2.683901 -1.55874 2.12132 -2.12132 
C 1.55874 -2.683901 0.795609 -3 0 -3 
C -0.795609 -3 -1.55874 -2.683901 -2.12132 -2.12132 
C -2.683901 -1.55874 -3 -0.795609 -3 0 
C -3 0.795609 -2.683901 1.55874 -2.12132 2.12132 
C -1.55874 2.683901 -0.795609 3 0 3 
z
" style="stroke: #0000ff"/>
    </defs>
    <g clip-path="url(#p8172fc2404)">
     <use xlink:href="#m59c945a898" x="83.800909" y="256.645881" style="fill: #0000ff; stroke: #0000ff"/>
     <use xlink:href="#m59c945a898" x="202.924545" y="120.521113" style="fill: #0000ff; stroke: #0000ff"/>
     <use xlink:href="#m59c945a898" x="322.048182" y="79.234188" style="fill: #0000ff; stroke: #0000ff"/>
     <use xlink:href="#m59c945a898" x="441.171818" y="61.64285" style="fill: #0000ff; stroke: #0000ff"/>
     <use xlink:href="#m59c945a898" x="560.295455" y="48.823926" style="fill: #0000ff; stroke: #0000ff"/>
     <use xlink:href="#m59c945a898" x="679.419091" y="42.553197" style="fill: #0000ff; stroke: #0000ff"/>
    </g>
   </g>
   <g id="line2d_27">
    <path d="M 83.800909 307.25566 
L 202.924545 202.540031 
L 322.048182 169.35511 
L 441.171818 163.139874 
L 560.295455 154.371952 
L 679.419091 154.149979 
" clip-path="url(#p8172fc2404)" style="fill: none; stroke: #800080; stroke-width: 1.5; stroke-linecap: square"/>
    <defs>
     <path id="m6c0116ab98" d="M 0 3 
C 0.795609 3 1.55874 2.683901 2.12132 2.12132 
C 2.683901 1.55874 3 0.795609 3 0 
C 3 -0.795609 2.683901 -1.55874 2.12132 -2.12132 
C 1.55874 -2.683901 0.795609 -3 0 -3 
C -0.795609 -3 -1.55874 -2.683901 -2.12132 -2.12132 
C -2.683901 -1.55874 -3 -0.795609 -3 0 
C -3 0.795609 -2.683901 1.55874 -2.12132 2.12132 
C -1.55874 2.683901 -0.795609 3 0 3 
z
" style="stroke: #800080"/>
    </defs>
    <g clip-path="url(#p8172fc2404)">
     <use xlink:href="#m6c0116ab98" x="83.800909" y="307.25566" style="fill: #800080; stroke: #800080"/>
     <use xlink:href="#m6c0116ab98" x="202.924545" y="202.540031" style="fill: #800080; stroke: #800080"/>
     <use xlink:href="#m6c0116ab98" x="322.048182" y="169.35511" style="fill: #800080; stroke: #800080"/>
     <use xlink:href="#m6c0116ab98" x="441.171818" y="163.139874" style="fill: #800080; stroke: #800080"/>
     <use xlink:href="#m6c0116ab98" x="560.295455" y="154.371952" style="fill: #800080; stroke: #800080"/>
     <use xlink:href="#m6c0116ab98" x="679.419091" y="154.149979" style="fill: #800080; stroke: #800080"/>
    </g>
   </g>
   <g id="line2d_28">
    <path d="M 83.800909 361.805455 
L 202.924545 214.637544 
L 322.048182 134.94934 
L 441.171818 107.757682 
L 560.295455 90.887756 
L 679.419091 85.227451 
" clip-path="url(#p8172fc2404)" style="fill: none; stroke: #008000; stroke-width: 1.5; stroke-linecap: square"/>
    <defs>
     <path id="m87c0581dc9" d="M 0 3 
C 0.795609 3 1.55874 2.683901 2.12132 2.12132 
C 2.683901 1.55874 3 0.795609 3 0 
C 3 -0.795609 2.683901 -1.55874 2.12132 -2.12132 
C 1.55874 -2.683901 0.795609 -3 0 -3 
C -0.795609 -3 -1.55874 -2.683901 -2.12132 -2.12132 
C -2.683901 -1.55874 -3 -0.795609 -3 0 
C -3 0.795609 -2.683901 1.55874 -2.12132 2.12132 
C -1.55874 2.683901 -0.795609 3 0 3 
z
" style="stroke: #008000"/>
    </defs>
    <g clip-path="url(#p8172fc2404)">
     <use xlink:href="#m87c0581dc9" x="83.800909" y="361.805455" style="fill: #008000; stroke: #008000"/>
     <use xlink:href="#m87c0581dc9" x="202.924545" y="214.637544" style="fill: #008000; stroke: #008000"/>
     <use xlink:href="#m87c0581dc9" x="322.048182" y="134.94934" style="fill: #008000; stroke: #008000"/>
     <use xlink:href="#m87c0581dc9" x="441.171818" y="107.757682" style="fill: #008000; stroke: #008000"/>
     <use xlink:href="#m87c0581dc9" x="560.295455" y="90.887756" style="fill: #008000; stroke: #008000"/>
     <use xlink:href="#m87c0581dc9" x="679.419091" y="85.227451" style="fill: #008000; stroke: #008000"/>
    </g>
   </g>
   <g id="patch_3">
    <path d="M 54.02 378.52 
L 54.02 10.8 
" style="fill: none; stroke: #000000; stroke-width: 0.8; stroke-linejoin: miter; stroke-linecap: square"/>
   </g>
   <g id="patch_4">
    <path d="M 709.2 378.52 
L 709.2 10.8 
" style="fill: none; stroke: #000000; stroke-width: 0.8; stroke-linejoin: miter; stroke-linecap: square"/>
   </g>
   <g id="patch_5">
    <path d="M 54.02 378.52 
L 709.2 378.52 
" style="fill: none; stroke: #000000; stroke-width: 0.8; stroke-linejoin: miter; stroke-linecap: square"/>
   </g>
   <g id="patch_6">
    <path d="M 54.02 10.8 
L 709.2 10.8 
" style="fill: none; stroke: #000000; stroke-width: 0.8; stroke-linejoin: miter; stroke-linecap: square"/>
   </g>
   <g id="legend_1">
    <g id="patch_7">
     <path d="M 595.491562 371.52 
L 699.4 371.52 
Q 702.2 371.52 702.2 368.72 
L 702.2 284.72 
Q 702.2 281.92 699.4 281.92 
L 595.491562 281.92 
Q 592.691563 281.92 592.691563 284.72 
L 592.691563 368.72 
Q 592.691563 371.52 595.491562 371.52 
z
" style="fill: #ffffff; opacity: 0.8; stroke: #cccccc; stroke-linejoin: miter"/>
    </g>
    <g id="line2d_29">
     <path d="M 598.291563 293.763125 
L 612.291563 293.763125 
L 626.291563 293.763125 
" style="fill: none; stroke: #ff0000; stroke-width: 1.5; stroke-linecap: square"/>
     <g>
      <use xlink:href="#mb0a0fff689" x="612.291563" y="293.763125" style="fill: #ff0000; stroke: #ff0000"/>
     </g>
    </g>
    <g id="text_15">
     <!-- MSAFNet -->
     <g transform="translate(637.491563 298.663125) scale(0.14 -0.14)">
      <defs>
       <path id="NotoSansCJKjp-Regular-4d" d="M 646 0 
L 1178 0 
L 1178 2598 
C 1178 3002 1139 3571 1101 3981 
L 1126 3981 
L 1504 2912 
L 2394 474 
L 2790 474 
L 3674 2912 
L 4051 3981 
L 4077 3981 
C 4045 3571 4000 3002 4000 2598 
L 4000 0 
L 4550 0 
L 4550 4691 
L 3840 4691 
L 2944 2182 
C 2835 1862 2739 1530 2618 1203 
L 2592 1203 
C 2477 1530 2374 1862 2253 2182 
L 1357 4691 
L 646 4691 
L 646 0 
z
" transform="scale(0.015625)"/>
       <path id="NotoSansCJKjp-Regular-53" d="M 1946 -83 
C 2925 -83 3539 506 3539 1248 
C 3539 1946 3117 2266 2573 2502 
L 1907 2790 
C 1542 2944 1126 3117 1126 3578 
C 1126 3994 1472 4256 2003 4256 
C 2438 4256 2784 4090 3072 3821 
L 3379 4198 
C 3053 4538 2560 4774 2003 4774 
C 1152 4774 525 4256 525 3533 
C 525 2848 1043 2515 1478 2330 
L 2150 2035 
C 2598 1837 2938 1683 2938 1197 
C 2938 742 2573 435 1952 435 
C 1466 435 992 666 659 1018 
L 307 608 
C 710 186 1280 -83 1946 -83 
z
" transform="scale(0.015625)"/>
       <path id="NotoSansCJKjp-Regular-41" d="M 26 0 
L 621 0 
L 1075 1434 
L 2790 1434 
L 3238 0 
L 3866 0 
L 2272 4691 
L 1613 4691 
L 26 0 
z
M 1222 1901 
L 1453 2624 
C 1619 3155 1773 3661 1920 4211 
L 1946 4211 
C 2099 3667 2246 3155 2419 2624 
L 2643 1901 
L 1222 1901 
z
" transform="scale(0.015625)"/>
       <path id="NotoSansCJKjp-Regular-46" d="M 646 0 
L 1235 0 
L 1235 2106 
L 3027 2106 
L 3027 2605 
L 1235 2605 
L 1235 4192 
L 3347 4192 
L 3347 4691 
L 646 4691 
L 646 0 
z
" transform="scale(0.015625)"/>
       <path id="NotoSansCJKjp-Regular-4e" d="M 646 0 
L 1203 0 
L 1203 2464 
C 1203 2957 1158 3456 1133 3930 
L 1158 3930 
L 1664 2963 
L 3373 0 
L 3981 0 
L 3981 4691 
L 3418 4691 
L 3418 2253 
C 3418 1766 3462 1235 3501 768 
L 3469 768 
L 2963 1734 
L 1248 4691 
L 646 4691 
L 646 0 
z
" transform="scale(0.015625)"/>
       <path id="NotoSansCJKjp-Regular-65" d="M 1997 -83 
C 2464 -83 2835 70 3136 269 
L 2931 659 
C 2669 486 2400 384 2061 384 
C 1402 384 947 858 909 1600 
L 3251 1600 
C 3264 1690 3277 1805 3277 1933 
C 3277 2925 2778 3565 1888 3565 
C 1094 3565 333 2867 333 1734 
C 333 589 1069 -83 1997 -83 
z
M 902 2016 
C 973 2707 1408 3098 1901 3098 
C 2445 3098 2765 2720 2765 2016 
L 902 2016 
z
" transform="scale(0.015625)"/>
       <path id="NotoSansCJKjp-Regular-74" d="M 1677 -83 
C 1894 -83 2125 -19 2323 45 
L 2208 486 
C 2093 435 1939 390 1811 390 
C 1408 390 1274 634 1274 1056 
L 1274 3002 
L 2221 3002 
L 2221 3475 
L 1274 3475 
L 1274 4454 
L 787 4454 
L 723 3475 
L 173 3443 
L 173 3002 
L 691 3002 
L 691 1075 
C 691 378 941 -83 1677 -83 
z
" transform="scale(0.015625)"/>
      </defs>
      <use xlink:href="#NotoSansCJKjp-Regular-4d"/>
      <use xlink:href="#NotoSansCJKjp-Regular-53" x="81.199982"/>
      <use xlink:href="#NotoSansCJKjp-Regular-41" x="140.799973"/>
      <use xlink:href="#NotoSansCJKjp-Regular-46" x="201.59996"/>
      <use xlink:href="#NotoSansCJKjp-Regular-4e" x="256.799957"/>
      <use xlink:href="#NotoSansCJKjp-Regular-65" x="329.099945"/>
      <use xlink:href="#NotoSansCJKjp-Regular-74" x="384.499939"/>
     </g>
    </g>
    <g id="line2d_30">
     <path d="M 598.291563 315.113125 
L 612.291563 315.113125 
L 626.291563 315.113125 
" style="fill: none; stroke: #0000ff; stroke-width: 1.5; stroke-linecap: square"/>
     <g>
      <use xlink:href="#m59c945a898" x="612.291563" y="315.113125" style="fill: #0000ff; stroke: #0000ff"/>
     </g>
    </g>
    <g id="text_16">
     <!-- Bisenet -->
     <g transform="translate(637.491563 320.013125) scale(0.14 -0.14)">
      <defs>
       <path id="NotoSansCJKjp-Regular-69" d="M 589 0 
L 1178 0 
L 1178 3475 
L 589 3475 
L 589 0 
z
M 883 4192 
C 1114 4192 1274 4346 1274 4582 
C 1274 4806 1114 4960 883 4960 
C 653 4960 499 4806 499 4582 
C 499 4346 653 4192 883 4192 
z
" transform="scale(0.015625)"/>
       <path id="NotoSansCJKjp-Regular-73" d="M 1498 -83 
C 2317 -83 2758 384 2758 947 
C 2758 1606 2208 1811 1702 2003 
C 1312 2150 954 2278 954 2605 
C 954 2880 1158 3110 1600 3110 
C 1907 3110 2150 2976 2387 2803 
L 2669 3168 
C 2406 3386 2022 3565 1594 3565 
C 832 3565 397 3130 397 2579 
C 397 1984 922 1754 1408 1574 
C 1792 1434 2202 1267 2202 915 
C 2202 614 1978 371 1517 371 
C 1101 371 794 538 486 787 
L 205 397 
C 531 122 1005 -83 1498 -83 
z
" transform="scale(0.015625)"/>
       <path id="NotoSansCJKjp-Regular-6e" d="M 589 0 
L 1178 0 
L 1178 2522 
C 1523 2874 1766 3053 2125 3053 
C 2586 3053 2784 2778 2784 2125 
L 2784 0 
L 3366 0 
L 3366 2202 
C 3366 3085 3034 3565 2304 3565 
C 1830 3565 1466 3302 1139 2970 
L 1126 2970 
L 1069 3475 
L 589 3475 
L 589 0 
z
" transform="scale(0.015625)"/>
      </defs>
      <use xlink:href="#NotoSansCJKjp-Regular-42"/>
      <use xlink:href="#NotoSansCJKjp-Regular-69" x="65.699997"/>
      <use xlink:href="#NotoSansCJKjp-Regular-73" x="93.199982"/>
      <use xlink:href="#NotoSansCJKjp-Regular-65" x="139.999969"/>
      <use xlink:href="#NotoSansCJKjp-Regular-6e" x="195.399963"/>
      <use xlink:href="#NotoSansCJKjp-Regular-65" x="256.399948"/>
      <use xlink:href="#NotoSansCJKjp-Regular-74" x="311.799942"/>
     </g>
    </g>
    <g id="line2d_31">
     <path d="M 598.291563 336.463125 
L 612.291563 336.463125 
L 626.291563 336.463125 
" style="fill: none; stroke: #800080; stroke-width: 1.5; stroke-linecap: square"/>
     <g>
      <use xlink:href="#m6c0116ab98" x="612.291563" y="336.463125" style="fill: #800080; stroke: #800080"/>
     </g>
    </g>
    <g id="text_17">
     <!-- ResNet -->
     <g transform="translate(637.491563 341.363125) scale(0.14 -0.14)">
      <defs>
       <path id="NotoSansCJKjp-Regular-52" d="M 1235 2464 
L 1235 4211 
L 2022 4211 
C 2758 4211 3162 3994 3162 3379 
C 3162 2765 2758 2464 2022 2464 
L 1235 2464 
z
M 3219 0 
L 3885 0 
L 2694 2054 
C 3328 2208 3750 2643 3750 3379 
C 3750 4352 3066 4691 2112 4691 
L 646 4691 
L 646 0 
L 1235 0 
L 1235 1990 
L 2080 1990 
L 3219 0 
z
" transform="scale(0.015625)"/>
      </defs>
      <use xlink:href="#NotoSansCJKjp-Regular-52"/>
      <use xlink:href="#NotoSansCJKjp-Regular-65" x="63.499985"/>
      <use xlink:href="#NotoSansCJKjp-Regular-73" x="118.899979"/>
      <use xlink:href="#NotoSansCJKjp-Regular-4e" x="165.699966"/>
      <use xlink:href="#NotoSansCJKjp-Regular-65" x="237.999954"/>
      <use xlink:href="#NotoSansCJKjp-Regular-74" x="293.399948"/>
     </g>
    </g>
    <g id="line2d_32">
     <path d="M 598.291563 357.813125 
L 612.291563 357.813125 
L 626.291563 357.813125 
" style="fill: none; stroke: #008000; stroke-width: 1.5; stroke-linecap: square"/>
     <g>
      <use xlink:href="#m87c0581dc9" x="612.291563" y="357.813125" style="fill: #008000; stroke: #008000"/>
     </g>
    </g>
    <g id="text_18">
     <!-- DDRNet -->
     <g transform="translate(637.491563 362.713125) scale(0.14 -0.14)">
      <defs>
       <path id="NotoSansCJKjp-Regular-44" d="M 646 0 
L 1843 0 
C 3258 0 4026 877 4026 2362 
C 4026 3859 3258 4691 1818 4691 
L 646 4691 
L 646 0 
z
M 1235 486 
L 1235 4211 
L 1766 4211 
C 2874 4211 3418 3552 3418 2362 
C 3418 1178 2874 486 1766 486 
L 1235 486 
z
" transform="scale(0.015625)"/>
      </defs>
      <use xlink:href="#NotoSansCJKjp-Regular-44"/>
      <use xlink:href="#NotoSansCJKjp-Regular-44" x="68.799988"/>
      <use xlink:href="#NotoSansCJKjp-Regular-52" x="137.599976"/>
      <use xlink:href="#NotoSansCJKjp-Regular-4e" x="201.09996"/>
      <use xlink:href="#NotoSansCJKjp-Regular-65" x="273.399948"/>
      <use xlink:href="#NotoSansCJKjp-Regular-74" x="328.799942"/>
     </g>
    </g>
   </g>
  </g>
 </g>
 <defs>
  <clipPath id="p8172fc2404">
   <rect x="54.02" y="10.8" width="655.18" height="367.72"/>
  </clipPath>
 </defs>
</svg>
